<?xml version="1.0" encoding="utf-8"?><svg xmlns="http://www.w3.org/2000/svg" xmlns:xlink="http://www.w3.org/1999/xlink"><symbol viewBox="0 0 24 24" id="behance" xmlns="http://www.w3.org/2000/svg"><path d="M22 7h-7V5h7v2zm1.726 10c-.442 1.297-2.029 3-5.101 3-3.074 0-5.564-1.729-5.564-5.675 0-3.91 2.325-5.92 5.466-5.92 3.082 0 4.964 1.782 5.375 4.426.078.506.109 1.188.095 2.14H15.97c.13 3.211 3.483 3.312 4.588 2.029h3.168zm-7.686-4h4.965c-.105-1.547-1.136-2.219-2.477-2.219-1.466 0-2.277.768-2.488 2.219zm-9.574 6.988H0V5.021h6.953c5.476.081 5.58 5.444 2.72 6.906 3.461 1.26 3.577 8.061-3.207 8.061zM3 11h3.584c2.508 0 2.906-3-.312-3H3v3zm3.391 3H3v3.016h3.341c3.055 0 2.868-3.016.05-3.016z"/></symbol><symbol fill-rule="evenodd" clip-rule="evenodd" viewBox="0 0 24 24" id="close" xmlns="http://www.w3.org/2000/svg"><path d="M12 11.293L22.293 1l.707.707L12.707 12 23 22.293l-.707.707L12 12.707 1.707 23 1 22.293 11.293 12 1 1.707 1.707 1 12 11.293z"/></symbol><symbol viewBox="0 0 24 24" id="dribbble" xmlns="http://www.w3.org/2000/svg"><path d="M12 0C5.372 0 0 5.373 0 12s5.372 12 12 12 12-5.373 12-12S18.628 0 12 0zm9.885 11.441c-2.575-.422-4.943-.445-7.103-.073a42.153 42.153 0 00-.767-1.68c2.31-1 4.165-2.358 5.548-4.082a9.863 9.863 0 012.322 5.835zm-3.842-7.282c-1.205 1.554-2.868 2.783-4.986 3.68a46.287 46.287 0 00-3.488-5.438A9.894 9.894 0 0112 2.087c2.275 0 4.368.779 6.043 2.072zM7.527 3.166a44.59 44.59 0 013.537 5.381c-2.43.715-5.331 1.082-8.684 1.105a9.931 9.931 0 015.147-6.486zM2.087 12l.013-.256c3.849-.005 7.169-.448 9.95-1.322.233.475.456.952.67 1.432-3.38 1.057-6.165 3.222-8.337 6.48A9.865 9.865 0 012.087 12zm3.829 7.81c1.969-3.088 4.482-5.098 7.598-6.027a39.137 39.137 0 012.043 7.46c-3.349 1.291-6.953.666-9.641-1.433zm11.586.43a41.098 41.098 0 00-1.92-6.897c1.876-.265 3.94-.196 6.199.196a9.923 9.923 0 01-4.279 6.701z"/></symbol><symbol viewBox="0 0 24 24" id="facebook" xmlns="http://www.w3.org/2000/svg"><path d="M9 8H6v4h3v12h5V12h3.642L18 8h-4V6.333C14 5.378 14.192 5 15.115 5H18V0h-3.808C10.596 0 9 1.583 9 4.615V8z"/></symbol><symbol viewBox="0 0 24 24" id="insta" xmlns="http://www.w3.org/2000/svg"><path d="M21.231 0H2.769A2.77 2.77 0 000 2.769v18.46A2.77 2.77 0 002.769 24h18.463A2.769 2.769 0 0024 21.229V2.769A2.769 2.769 0 0021.231 0zM12 7.385a4.615 4.615 0 11.002 9.23A4.615 4.615 0 0112 7.385zm9 12.693a.923.923 0 01-.924.922H3.924A.923.923 0 013 20.078V10h1.897a7.56 7.56 0 00-.2.971c-.05.337-.081.679-.081 1.029a7.384 7.384 0 1014.768 0c0-.35-.031-.692-.081-1.028a7.56 7.56 0 00-.2-.971H21v10.077zm0-13.98a.924.924 0 01-.924.923h-2.174a.923.923 0 01-.923-.923V3.923c0-.51.412-.923.923-.923h2.174c.511 0 .924.413.924.923v2.175z" fill-rule="evenodd" clip-rule="evenodd"/></symbol><symbol viewBox="0 0 24 24" id="linkedin" xmlns="http://www.w3.org/2000/svg"><path d="M4.98 3.5C4.98 4.881 3.87 6 2.5 6S.02 4.881.02 3.5C.02 2.12 1.13 1 2.5 1s2.48 1.12 2.48 2.5zM5 8H0v16h5V8zm7.982 0H8.014v16h4.969v-8.399c0-4.67 6.029-5.052 6.029 0V24H24V13.869c0-7.88-8.922-7.593-11.018-3.714V8z"/></symbol><symbol fill-rule="evenodd" clip-rule="evenodd" viewBox="0 0 24 24" id="menu" xmlns="http://www.w3.org/2000/svg"><path d="M24 18v1H0v-1h24zm0-6v1H0v-1h24zm0-6v1H0V6h24z" fill="#1040e2"/><path d="M24 19H0v-1h24v1zm0-6H0v-1h24v1zm0-6H0V6h24v1z"/></symbol><symbol viewBox="0 0 24 24" id="twi" xmlns="http://www.w3.org/2000/svg"><path d="M24 4.557a9.83 9.83 0 01-2.828.775 4.932 4.932 0 002.165-2.724 9.864 9.864 0 01-3.127 1.195 4.916 4.916 0 00-3.594-1.555c-3.179 0-5.515 2.966-4.797 6.045A13.978 13.978 0 011.671 3.149a4.93 4.93 0 001.523 6.574 4.903 4.903 0 01-2.229-.616c-.054 2.281 1.581 4.415 3.949 4.89a4.935 4.935 0 01-2.224.084 4.928 4.928 0 004.6 3.419A9.9 9.9 0 010 19.54a13.94 13.94 0 007.548 2.212c9.142 0 14.307-7.721 13.995-14.646A10.025 10.025 0 0024 4.557z"/></symbol></svg>